<?xml version="1.0" encoding="UTF-8"?>
<svg xmlns="http://www.w3.org/2000/svg" xmlns:xlink="http://www.w3.org/1999/xlink" width="300pt" height="200pt" viewBox="0 0 300 200" version="1.1">
<g id="surface1">
<path style="fill-rule:nonzero;fill:rgb(100%,0%,40%);fill-opacity:1;stroke-width:0.04;stroke-linecap:butt;stroke-linejoin:miter;stroke:rgb(100%,100%,100%);stroke-opacity:1;stroke-miterlimit:10;" d="M 1.875273 1.277539 L 1.706875 1.153008 C 1.785352 1.046914 1.770859 0.898633 1.673281 0.809766 C 1.575703 0.720898 1.426758 0.720234 1.328398 0.808242 C 1.230078 0.89625 1.214219 1.044375 1.291758 1.151172 C 1.369297 1.257969 1.515078 1.288789 1.62918 1.222539 L 1.758203 1.444805 C 1.987383 1.311758 2.077969 1.026367 1.967461 0.785508 C 1.856953 0.544687 1.581562 0.427227 1.33125 0.514141 C 1.080938 0.601094 0.937656 0.864023 1.000234 1.121484 C 1.062852 1.378984 1.31082 1.546758 1.573125 1.509102 L 1.577109 1.536875 C 1.866445 1.495313 2.07082 1.231914 2.03918 0.941328 C 2.007578 0.650703 1.751328 0.437461 1.459805 0.459102 C 1.16832 0.480781 0.946406 0.72957 0.958047 1.021641 C 0.969727 1.313711 1.210781 1.544023 1.503086 1.542383 L 1.500859 1.150625 C 1.554805 1.150313 1.604453 1.121211 1.631055 1.074258 C 1.657656 1.027344 1.657109 0.969766 1.629648 0.92332 C 1.602227 0.876875 1.552031 0.848672 1.498086 0.849375 C 1.444141 0.850078 1.394688 0.879531 1.368437 0.926641 L 0.991133 0.716367 C 0.868477 0.936445 0.901172 1.21043 1.072188 1.39543 C 1.243203 1.58043 1.51375 1.63457 1.742773 1.52957 C 1.971797 1.424609 2.107383 1.184297 2.078828 0.933984 C 2.050273 0.683633 1.864023 0.480039 1.617266 0.429336 L 1.532969 0.839609 C 1.453477 0.823281 1.374062 0.867617 1.346211 0.943828 C 1.318398 1.020039 1.350547 1.105117 1.421836 1.143867 C 1.493086 1.182578 1.581992 1.163281 1.630781 1.098477 C 1.67957 1.033672 1.673555 0.94293 1.616641 0.885117 Z M 1.875273 1.277539 " transform="matrix(100,0,0,100,0,0)"/>
</g>
</svg>
