<?xml version="1.0" encoding="UTF-8"?>
<svg xmlns="http://www.w3.org/2000/svg" xmlns:xlink="http://www.w3.org/1999/xlink" width="300pt" height="200pt" viewBox="0 0 300 200" version="1.1">
<g id="surface1">
<path style="fill-rule:nonzero;fill:rgb(20%,60%,100%);fill-opacity:1;stroke-width:0.04;stroke-linecap:butt;stroke-linejoin:miter;stroke:rgb(0%,0%,0%);stroke-opacity:1;stroke-miterlimit:10;" d="M 2.087773 1.173203 L 2.365859 1.255156 C 2.328438 1.382227 2.263477 1.499492 2.175664 1.598633 L 1.929688 1.380703 C 1.880703 1.436016 1.821484 1.481328 1.755313 1.51418 L 1.811328 1.627031 C 1.732578 1.666094 1.647188 1.690039 1.55957 1.6975 L 1.55793 1.678359 C 1.268125 1.703086 0.99457 1.540977 0.877148 1.274844 L 0.683125 1.360469 C 0.629609 1.239219 0.60375 1.107539 0.607461 0.975039 L 0.936758 0.984258 C 0.93832 0.927422 0.948516 0.871211 0.966914 0.817422 L 0.811172 0.764102 C 0.822422 0.731211 0.836016 0.69918 0.851875 0.668242 L 0.673203 0.576758 C 0.895781 0.141914 1.417148 -0.0461719 1.866094 0.146367 L 1.812773 0.270703 C 1.912148 0.31332 2.001758 0.375781 2.076094 0.454297 L 2.077266 0.453203 C 2.100156 0.477383 2.121523 0.502969 2.14125 0.529844 Z M 2.087773 1.173203 " transform="matrix(100,0,0,100,0,0)"/>
</g>
</svg>
