<?xml version='1.0' encoding='ASCII' standalone='yes'?>
<svg xmlns="http://www.w3.org/2000/svg" xmlns:xlink="http://www.w3.org/1999/xlink" width="100pt" height="100pt" viewBox="0 0 100 100" version="1.1">
<g><g transform="translate(50.0, 50.0) scale(0.2 0.2) "><g id="surface1"><path style="fill-rule:nonzero;fill:rgb(31.764706%,39.607843%,0%);fill-opacity:1;stroke-width:0.1;stroke-linecap:butt;stroke-linejoin:miter;stroke:rgb(46.666667%,13.333333%,20%);stroke-opacity:0.7;stroke-miterlimit:10;" d="M 3.198281 3.410703 L 3.114766 3.312422 C 3.065781 3.354062 3.014453 3.392891 2.961094 3.428828 L 2.763203 3.134609 C 2.444063 3.349297 2.049219 3.419609 1.675547 3.328359 C 1.301875 3.237109 0.983984 2.992656 0.799687 2.655 C 0.615469 2.317422 0.581875 1.917734 0.707344 1.554141 C 0.832734 1.190547 1.105547 0.896563 1.45875 0.744297 L 1.270781 0.308203 C 1.501563 0.20875 1.750234 0.157578 2.001484 0.157734 Z M 3.198281 3.410703 " transform="matrix(50,0,0,50,0,0)"/></g></g></g><g><g transform="translate(10.0, 10.0) scale(0.2 0.2) "><g id="surface1"><path style="fill-rule:nonzero;fill:rgb(31.764706%,39.607843%,0%);fill-opacity:1;stroke-width:0.1;stroke-linecap:butt;stroke-linejoin:miter;stroke:rgb(46.666667%,13.333333%,20%);stroke-opacity:0.7;stroke-miterlimit:10;" d="M 2.886797 3.508516 L 2.986484 3.678047 C 2.809766 3.781875 2.617812 3.857188 2.417656 3.901172 L 2.337578 3.536641 C 1.779297 3.659219 1.198438 3.469453 0.820234 3.040859 C 0.442109 2.612188 0.326172 2.012266 0.517422 1.473594 L 0.69625 1.537109 C 0.921563 0.902656 1.570859 0.522422 2.234375 0.636484 Z M 2.886797 3.508516 " transform="matrix(50,0,0,50,0,0)"/></g></g></g><g><g transform="translate(20.0, 20.0) scale(0.3 0.3) "><g id="surface1"><path style="fill-rule:nonzero;fill:rgb(31.764706%,39.607843%,0%);fill-opacity:1;stroke-width:0.1;stroke-linecap:butt;stroke-linejoin:miter;stroke:rgb(46.666667%,13.333333%,20%);stroke-opacity:0.7;stroke-miterlimit:10;" d="M 2.663516 3.063984 L 2.853672 3.368828 C 2.766016 3.423594 2.673203 3.469688 2.576719 3.506641 L 2.507266 3.325234 C 2.105469 3.478984 1.655547 3.442188 1.284141 3.225156 C 0.912656 3.008125 0.659766 2.634219 0.596484 2.208672 L 0.684922 2.195547 C 0.583281 1.5125 1.021641 0.865313 1.693672 0.706172 C 2.365703 0.547109 3.047656 0.928984 3.263125 1.585078 Z M 2.663516 3.063984 " transform="matrix(50,0,0,50,0,0)"/></g></g></g><g><g transform="translate(50.0, 10.0) scale(0.2 0.2) "><g id="surface1"><path style="fill-rule:nonzero;fill:rgb(31.764706%,39.607843%,0%);fill-opacity:1;stroke-width:0.1;stroke-linecap:butt;stroke-linejoin:miter;stroke:rgb(46.666667%,13.333333%,20%);stroke-opacity:0.7;stroke-miterlimit:10;" d="M 3.198281 3.410703 L 3.114766 3.312422 C 3.065781 3.354062 3.014453 3.392891 2.961094 3.428828 L 2.763203 3.134609 C 2.444063 3.349297 2.049219 3.419609 1.675547 3.328359 C 1.301875 3.237109 0.983984 2.992656 0.799687 2.655 C 0.615469 2.317422 0.581875 1.917734 0.707344 1.554141 C 0.832734 1.190547 1.105547 0.896563 1.45875 0.744297 L 1.270781 0.308203 C 1.501563 0.20875 1.750234 0.157578 2.001484 0.157734 Z M 3.198281 3.410703 " transform="matrix(50,0,0,50,0,0)"/></g></g></g><g><g transform="translate(10.0, 50.0) scale(0.2 0.2) "><g id="surface1"><path style="fill-rule:nonzero;fill:rgb(31.764706%,39.607843%,0%);fill-opacity:1;stroke-width:0.1;stroke-linecap:butt;stroke-linejoin:miter;stroke:rgb(46.666667%,13.333333%,20%);stroke-opacity:0.7;stroke-miterlimit:10;" d="M 2.886797 3.508516 L 2.986484 3.678047 C 2.809766 3.781875 2.617812 3.857188 2.417656 3.901172 L 2.337578 3.536641 C 1.779297 3.659219 1.198438 3.469453 0.820234 3.040859 C 0.442109 2.612188 0.326172 2.012266 0.517422 1.473594 L 0.69625 1.537109 C 0.921563 0.902656 1.570859 0.522422 2.234375 0.636484 Z M 2.886797 3.508516 " transform="matrix(50,0,0,50,0,0)"/></g></g></g><g><g transform="translate(25.0, 5.0) scale(0.25 0.25) "><g id="surface1"><path style="fill-rule:nonzero;fill:rgb(31.764706%,39.607843%,0%);fill-opacity:1;stroke-width:0.1;stroke-linecap:butt;stroke-linejoin:miter;stroke:rgb(46.666667%,13.333333%,20%);stroke-opacity:0.7;stroke-miterlimit:10;" d="M 2.663516 3.063984 L 2.853672 3.368828 C 2.766016 3.423594 2.673203 3.469688 2.576719 3.506641 L 2.507266 3.325234 C 2.105469 3.478984 1.655547 3.442188 1.284141 3.225156 C 0.912656 3.008125 0.659766 2.634219 0.596484 2.208672 L 0.684922 2.195547 C 0.583281 1.5125 1.021641 0.865313 1.693672 0.706172 C 2.365703 0.547109 3.047656 0.928984 3.263125 1.585078 Z M 2.663516 3.063984 " transform="matrix(50,0,0,50,0,0)"/></g></g></g></svg>
